<svg id="Layer_1" data-name="Layer 1" xmlns="http://www.w3.org/2000/svg" xmlns:xlink="http://www.w3.org/1999/xlink" width="281" height="335" viewBox="0 0 281 335">
  <defs>
    <style>
      .cls-1 {
        fill: #fe4340;
      }

      .cls-2 {
        fill: #e5322b;
      }

      .cls-3 {
        fill: #3a2c99;
      }

      .cls-4 {
        isolation: isolate;
      }

      .cls-5 {
        clip-path: url(#clip-path);
      }

      .cls-6 {
        clip-path: url(#clip-path-2);
      }

      .cls-7 {
        fill: #ff6661;
      }

      .cls-8 {
        fill: #dadaf9;
      }

      .cls-9 {
        fill: #bfbeed;
      }

      .cls-10 {
        fill: #f4f4fa;
      }

      .cls-11 {
        fill: #c21a14;
      }

      .cls-12 {
        fill: #19121b;
      }

      .cls-13 {
        fill: #262028;
      }

      .cls-14 {
        fill: #f9d5c3;
      }

      .cls-15 {
        fill: #35353f;
      }

      .cls-16 {
        fill: #ffc400;
      }
    </style>
    <clipPath id="clip-path" transform="translate(-85 -57)">
      <path class="cls-1" d="M0,0Z"/>
    </clipPath>
    <clipPath id="clip-path-2" transform="translate(-85 -57)">
      <path class="cls-2" d="M0,0Z"/>
    </clipPath>
  </defs>
  <g>
    <g>
      <path class="cls-3" d="M0,0Z" transform="translate(-85 -57)"/>
      <path class="cls-3" d="M0,0ZM0,0Z" transform="translate(-85 -57)"/>
      <path class="cls-3" d="M0,0Z" transform="translate(-85 -57)"/>
      <path class="cls-3" d="M0,0ZM0,0Z" transform="translate(-85 -57)"/>
      <path class="cls-3" d="M0,0Z" transform="translate(-85 -57)"/>
      <path class="cls-3" d="M0,0ZM0,0Z" transform="translate(-85 -57)"/>
      <path class="cls-3" d="M0,0ZM0,0Z" transform="translate(-85 -57)"/>
      <path class="cls-3" d="M0,0ZM0,0Z" transform="translate(-85 -57)"/>
      <path class="cls-3" d="M0,0Z" transform="translate(-85 -57)"/>
      <path class="cls-3" d="M0,0ZM0,0Z" transform="translate(-85 -57)"/>
      <path class="cls-3" d="M0,0Z" transform="translate(-85 -57)"/>
      <path class="cls-3" d="M0,0ZM0,0Z" transform="translate(-85 -57)"/>
      <path class="cls-3" d="M0,0Z" transform="translate(-85 -57)"/>
      <path class="cls-3" d="M0,0ZM0,0Z" transform="translate(-85 -57)"/>
      <path class="cls-3" d="M0,0ZM0,0Z" transform="translate(-85 -57)"/>
      <path class="cls-3" d="M0,0ZM0,0Z" transform="translate(-85 -57)"/>
      <path class="cls-3" d="M0,0Z" transform="translate(-85 -57)"/>
      <path class="cls-3" d="M0,0ZM0,0Z" transform="translate(-85 -57)"/>
      <path class="cls-3" d="M0,0Z" transform="translate(-85 -57)"/>
      <path class="cls-3" d="M0,0Z" transform="translate(-85 -57)"/>
      <path class="cls-3" d="M0,0ZM0,0Z" transform="translate(-85 -57)"/>
      <path class="cls-3" d="M0,0Z" transform="translate(-85 -57)"/>
      <path class="cls-3" d="M0,0ZM0,0Z" transform="translate(-85 -57)"/>
      <path class="cls-3" d="M0,0Z" transform="translate(-85 -57)"/>
      <path class="cls-3" d="M0,0ZM0,0Z" transform="translate(-85 -57)"/>
      <path class="cls-3" d="M0,0ZM0,0Z" transform="translate(-85 -57)"/>
      <path class="cls-3" d="M0,0ZM0,0Z" transform="translate(-85 -57)"/>
      <path class="cls-3" d="M0,0Z" transform="translate(-85 -57)"/>
      <path class="cls-3" d="M0,0ZM0,0Z" transform="translate(-85 -57)"/>
      <path class="cls-3" d="M0,0Z" transform="translate(-85 -57)"/>
      <path class="cls-3" d="M0,0ZM0,0Z" transform="translate(-85 -57)"/>
      <path class="cls-3" d="M0,0Z" transform="translate(-85 -57)"/>
      <path class="cls-3" d="M0,0ZM0,0Z" transform="translate(-85 -57)"/>
      <path class="cls-3" d="M0,0Z" transform="translate(-85 -57)"/>
      <path class="cls-3" d="M0,0ZM0,0Z" transform="translate(-85 -57)"/>
      <path class="cls-3" d="M0,0Z" transform="translate(-85 -57)"/>
      <path class="cls-3" d="M0,0ZM0,0Z" transform="translate(-85 -57)"/>
      <path class="cls-3" d="M0,0Z" transform="translate(-85 -57)"/>
      <path class="cls-3" d="M0,0ZM0,0Z" transform="translate(-85 -57)"/>
      <path class="cls-3" d="M0,0ZM0,0Z" transform="translate(-85 -57)"/>
      <path class="cls-3" d="M0,0Z" transform="translate(-85 -57)"/>
      <path class="cls-3" d="M0,0ZM0,0Z" transform="translate(-85 -57)"/>
      <path class="cls-3" d="M0,0Z" transform="translate(-85 -57)"/>
      <path class="cls-3" d="M0,0ZM0,0Z" transform="translate(-85 -57)"/>
      <path class="cls-3" d="M0,0Z" transform="translate(-85 -57)"/>
      <path class="cls-3" d="M0,0ZM0,0Z" transform="translate(-85 -57)"/>
      <path class="cls-3" d="M0,0Z" transform="translate(-85 -57)"/>
      <path class="cls-3" d="M0,0ZM0,0Z" transform="translate(-85 -57)"/>
      <path class="cls-3" d="M0,0Z" transform="translate(-85 -57)"/>
      <path class="cls-3" d="M0,0Z" transform="translate(-85 -57)"/>
      <path class="cls-3" d="M0,0ZM0,0Z" transform="translate(-85 -57)"/>
      <path class="cls-3" d="M0,0Z" transform="translate(-85 -57)"/>
      <path class="cls-3" d="M0,0Z" transform="translate(-85 -57)"/>
      <path class="cls-3" d="M0,0ZM0,0Z" transform="translate(-85 -57)"/>
      <path class="cls-3" d="M0,0Z" transform="translate(-85 -57)"/>
      <path class="cls-3" d="M0,0ZM0,0Z" transform="translate(-85 -57)"/>
      <path class="cls-3" d="M0,0ZM0,0Z" transform="translate(-85 -57)"/>
      <path class="cls-3" d="M0,0Z" transform="translate(-85 -57)"/>
      <path class="cls-3" d="M0,0ZM0,0Z" transform="translate(-85 -57)"/>
      <path class="cls-3" d="M0,0Z" transform="translate(-85 -57)"/>
      <path class="cls-3" d="M0,0ZM0,0Z" transform="translate(-85 -57)"/>
      <path class="cls-3" d="M0,0Z" transform="translate(-85 -57)"/>
      <path class="cls-3" d="M0,0ZM0,0Z" transform="translate(-85 -57)"/>
      <path class="cls-3" d="M0,0Z" transform="translate(-85 -57)"/>
      <path class="cls-3" d="M0,0ZM0,0Z" transform="translate(-85 -57)"/>
      <path class="cls-3" d="M0,0Z" transform="translate(-85 -57)"/>
      <path class="cls-3" d="M0,0ZM0,0Z" transform="translate(-85 -57)"/>
      <path class="cls-3" d="M0,0Z" transform="translate(-85 -57)"/>
      <path class="cls-3" d="M0,0ZM0,0Z" transform="translate(-85 -57)"/>
      <path class="cls-3" d="M0,0Z" transform="translate(-85 -57)"/>
      <path class="cls-3" d="M0,0ZM0,0Z" transform="translate(-85 -57)"/>
      <path class="cls-3" d="M0,0Z" transform="translate(-85 -57)"/>
      <path class="cls-3" d="M0,0ZM0,0Z" transform="translate(-85 -57)"/>
      <path class="cls-3" d="M0,0Z" transform="translate(-85 -57)"/>
      <path class="cls-3" d="M0,0ZM0,0Z" transform="translate(-85 -57)"/>
      <path class="cls-3" d="M0,0ZM0,0Z" transform="translate(-85 -57)"/>
      <path class="cls-3" d="M0,0ZM0,0Z" transform="translate(-85 -57)"/>
      <path class="cls-3" d="M0,0Z" transform="translate(-85 -57)"/>
      <path class="cls-3" d="M0,0Z" transform="translate(-85 -57)"/>
      <path class="cls-3" d="M0,0ZM0,0Z" transform="translate(-85 -57)"/>
      <path class="cls-3" d="M0,0Z" transform="translate(-85 -57)"/>
      <path class="cls-3" d="M0,0ZM0,0Z" transform="translate(-85 -57)"/>
      <path class="cls-3" d="M0,0Z" transform="translate(-85 -57)"/>
      <path class="cls-3" d="M0,0ZM0,0Z" transform="translate(-85 -57)"/>
      <path class="cls-3" d="M0,0ZM0,0Z" transform="translate(-85 -57)"/>
      <path class="cls-3" d="M0,0ZM0,0Z" transform="translate(-85 -57)"/>
      <path class="cls-3" d="M0,0Z" transform="translate(-85 -57)"/>
      <path class="cls-3" d="M0,0ZM0,0Z" transform="translate(-85 -57)"/>
      <path class="cls-3" d="M0,0Z" transform="translate(-85 -57)"/>
      <path class="cls-3" d="M0,0ZM0,0Z" transform="translate(-85 -57)"/>
      <path class="cls-3" d="M0,0Z" transform="translate(-85 -57)"/>
      <path class="cls-3" d="M0,0ZM0,0Z" transform="translate(-85 -57)"/>
      <path class="cls-3" d="M0,0ZM0,0Z" transform="translate(-85 -57)"/>
      <path class="cls-3" d="M0,0ZM0,0Z" transform="translate(-85 -57)"/>
      <path class="cls-3" d="M0,0Z" transform="translate(-85 -57)"/>
      <path class="cls-3" d="M0,0ZM0,0Z" transform="translate(-85 -57)"/>
      <path class="cls-3" d="M0,0Z" transform="translate(-85 -57)"/>
      <path class="cls-3" d="M0,0Z" transform="translate(-85 -57)"/>
      <path class="cls-3" d="M0,0ZM0,0Z" transform="translate(-85 -57)"/>
      <path class="cls-3" d="M0,0Z" transform="translate(-85 -57)"/>
      <path class="cls-3" d="M0,0ZM0,0Z" transform="translate(-85 -57)"/>
      <path class="cls-3" d="M0,0Z" transform="translate(-85 -57)"/>
      <path class="cls-3" d="M0,0ZM0,0Z" transform="translate(-85 -57)"/>
      <path class="cls-3" d="M0,0ZM0,0Z" transform="translate(-85 -57)"/>
      <path class="cls-3" d="M0,0ZM0,0Z" transform="translate(-85 -57)"/>
      <path class="cls-3" d="M0,0Z" transform="translate(-85 -57)"/>
      <path class="cls-3" d="M0,0ZM0,0Z" transform="translate(-85 -57)"/>
      <path class="cls-3" d="M0,0Z" transform="translate(-85 -57)"/>
      <path class="cls-3" d="M0,0ZM0,0Z" transform="translate(-85 -57)"/>
      <path class="cls-3" d="M0,0Z" transform="translate(-85 -57)"/>
      <path class="cls-3" d="M0,0ZM0,0Z" transform="translate(-85 -57)"/>
      <path class="cls-3" d="M0,0Z" transform="translate(-85 -57)"/>
      <path class="cls-3" d="M0,0ZM0,0Z" transform="translate(-85 -57)"/>
      <path class="cls-3" d="M0,0Z" transform="translate(-85 -57)"/>
      <path class="cls-3" d="M0,0ZM0,0Z" transform="translate(-85 -57)"/>
      <path class="cls-3" d="M0,0Z" transform="translate(-85 -57)"/>
      <path class="cls-3" d="M0,0ZM0,0Z" transform="translate(-85 -57)"/>
      <path class="cls-3" d="M0,0ZM0,0Z" transform="translate(-85 -57)"/>
      <path class="cls-3" d="M0,0Z" transform="translate(-85 -57)"/>
      <path class="cls-3" d="M0,0ZM0,0Z" transform="translate(-85 -57)"/>
      <path class="cls-3" d="M0,0Z" transform="translate(-85 -57)"/>
      <path class="cls-3" d="M0,0ZM0,0Z" transform="translate(-85 -57)"/>
      <path class="cls-3" d="M0,0Z" transform="translate(-85 -57)"/>
      <path class="cls-3" d="M0,0ZM0,0Z" transform="translate(-85 -57)"/>
      <path class="cls-3" d="M0,0Z" transform="translate(-85 -57)"/>
      <path class="cls-3" d="M0,0ZM0,0Z" transform="translate(-85 -57)"/>
      <path class="cls-3" d="M0,0Z" transform="translate(-85 -57)"/>
      <path class="cls-3" d="M0,0Z" transform="translate(-85 -57)"/>
      <path class="cls-3" d="M0,0ZM0,0Z" transform="translate(-85 -57)"/>
      <path class="cls-3" d="M0,0Z" transform="translate(-85 -57)"/>
      <path class="cls-3" d="M0,0Z" transform="translate(-85 -57)"/>
      <path class="cls-3" d="M0,0ZM0,0Z" transform="translate(-85 -57)"/>
      <path class="cls-3" d="M0,0Z" transform="translate(-85 -57)"/>
      <path class="cls-3" d="M0,0ZM0,0Z" transform="translate(-85 -57)"/>
      <path class="cls-3" d="M0,0ZM0,0Z" transform="translate(-85 -57)"/>
      <path class="cls-3" d="M0,0Z" transform="translate(-85 -57)"/>
      <path class="cls-3" d="M0,0ZM0,0Z" transform="translate(-85 -57)"/>
      <path class="cls-3" d="M0,0Z" transform="translate(-85 -57)"/>
      <path class="cls-3" d="M0,0ZM0,0Z" transform="translate(-85 -57)"/>
      <path class="cls-3" d="M0,0Z" transform="translate(-85 -57)"/>
      <path class="cls-3" d="M0,0ZM0,0Z" transform="translate(-85 -57)"/>
      <path class="cls-3" d="M0,0Z" transform="translate(-85 -57)"/>
      <path class="cls-3" d="M0,0ZM0,0Z" transform="translate(-85 -57)"/>
      <path class="cls-3" d="M0,0Z" transform="translate(-85 -57)"/>
      <path class="cls-3" d="M0,0ZM0,0Z" transform="translate(-85 -57)"/>
      <path class="cls-3" d="M0,0Z" transform="translate(-85 -57)"/>
      <path class="cls-3" d="M0,0ZM0,0Z" transform="translate(-85 -57)"/>
      <path class="cls-3" d="M0,0Z" transform="translate(-85 -57)"/>
      <path class="cls-3" d="M0,0ZM0,0Z" transform="translate(-85 -57)"/>
      <path class="cls-3" d="M0,0Z" transform="translate(-85 -57)"/>
      <path class="cls-3" d="M0,0ZM0,0Z" transform="translate(-85 -57)"/>
      <path class="cls-3" d="M0,0Z" transform="translate(-85 -57)"/>
      <path class="cls-3" d="M0,0ZM0,0Z" transform="translate(-85 -57)"/>
      <path class="cls-3" d="M0,0ZM0,0Z" transform="translate(-85 -57)"/>
      <path class="cls-3" d="M0,0ZM0,0Z" transform="translate(-85 -57)"/>
      <path class="cls-3" d="M0,0Z" transform="translate(-85 -57)"/>
      <path class="cls-3" d="M0,0Z" transform="translate(-85 -57)"/>
      <path class="cls-3" d="M0,0ZM0,0Z" transform="translate(-85 -57)"/>
      <path class="cls-3" d="M0,0Z" transform="translate(-85 -57)"/>
      <path class="cls-3" d="M0,0ZM0,0Z" transform="translate(-85 -57)"/>
      <path class="cls-3" d="M0,0Z" transform="translate(-85 -57)"/>
      <path class="cls-3" d="M0,0ZM0,0Z" transform="translate(-85 -57)"/>
      <path class="cls-3" d="M0,0ZM0,0Z" transform="translate(-85 -57)"/>
      <path class="cls-3" d="M0,0ZM0,0Z" transform="translate(-85 -57)"/>
      <path class="cls-3" d="M0,0Z" transform="translate(-85 -57)"/>
      <path class="cls-3" d="M0,0ZM0,0Z" transform="translate(-85 -57)"/>
      <path class="cls-3" d="M0,0Z" transform="translate(-85 -57)"/>
      <path class="cls-3" d="M0,0ZM0,0Z" transform="translate(-85 -57)"/>
      <path class="cls-3" d="M0,0Z" transform="translate(-85 -57)"/>
      <path class="cls-3" d="M0,0ZM0,0Z" transform="translate(-85 -57)"/>
      <path class="cls-3" d="M0,0ZM0,0Z" transform="translate(-85 -57)"/>
      <path class="cls-3" d="M0,0ZM0,0Z" transform="translate(-85 -57)"/>
      <path class="cls-3" d="M0,0Z" transform="translate(-85 -57)"/>
      <path class="cls-3" d="M0,0ZM0,0Z" transform="translate(-85 -57)"/>
      <path class="cls-3" d="M0,0Z" transform="translate(-85 -57)"/>
      <path class="cls-3" d="M0,0Z" transform="translate(-85 -57)"/>
      <path class="cls-3" d="M0,0ZM0,0Z" transform="translate(-85 -57)"/>
      <path class="cls-3" d="M0,0Z" transform="translate(-85 -57)"/>
      <path class="cls-3" d="M0,0ZM0,0Z" transform="translate(-85 -57)"/>
      <path class="cls-3" d="M0,0Z" transform="translate(-85 -57)"/>
      <path class="cls-3" d="M0,0ZM0,0Z" transform="translate(-85 -57)"/>
      <path class="cls-3" d="M0,0ZM0,0Z" transform="translate(-85 -57)"/>
      <path class="cls-3" d="M0,0ZM0,0Z" transform="translate(-85 -57)"/>
      <path class="cls-3" d="M0,0Z" transform="translate(-85 -57)"/>
      <path class="cls-3" d="M0,0ZM0,0Z" transform="translate(-85 -57)"/>
      <path class="cls-3" d="M0,0Z" transform="translate(-85 -57)"/>
      <path class="cls-3" d="M0,0ZM0,0Z" transform="translate(-85 -57)"/>
      <path class="cls-3" d="M0,0Z" transform="translate(-85 -57)"/>
      <path class="cls-3" d="M0,0ZM0,0Z" transform="translate(-85 -57)"/>
      <path class="cls-3" d="M0,0Z" transform="translate(-85 -57)"/>
      <path class="cls-3" d="M0,0ZM0,0Z" transform="translate(-85 -57)"/>
      <path class="cls-3" d="M0,0Z" transform="translate(-85 -57)"/>
      <path class="cls-3" d="M0,0ZM0,0Z" transform="translate(-85 -57)"/>
      <path class="cls-3" d="M0,0Z" transform="translate(-85 -57)"/>
      <path class="cls-3" d="M0,0ZM0,0Z" transform="translate(-85 -57)"/>
      <path class="cls-3" d="M0,0ZM0,0Z" transform="translate(-85 -57)"/>
      <path class="cls-3" d="M0,0Z" transform="translate(-85 -57)"/>
      <path class="cls-3" d="M0,0ZM0,0Z" transform="translate(-85 -57)"/>
      <path class="cls-3" d="M0,0Z" transform="translate(-85 -57)"/>
      <path class="cls-3" d="M0,0ZM0,0Z" transform="translate(-85 -57)"/>
      <path class="cls-3" d="M0,0Z" transform="translate(-85 -57)"/>
      <path class="cls-3" d="M0,0ZM0,0Z" transform="translate(-85 -57)"/>
      <path class="cls-3" d="M0,0Z" transform="translate(-85 -57)"/>
      <path class="cls-3" d="M0,0ZM0,0Z" transform="translate(-85 -57)"/>
      <path class="cls-3" d="M0,0Z" transform="translate(-85 -57)"/>
      <path class="cls-3" d="M0,0Z" transform="translate(-85 -57)"/>
      <path class="cls-3" d="M0,0ZM0,0Z" transform="translate(-85 -57)"/>
      <path class="cls-3" d="M0,0Z" transform="translate(-85 -57)"/>
      <path class="cls-3" d="M0,0Z" transform="translate(-85 -57)"/>
      <path class="cls-3" d="M0,0ZM0,0Z" transform="translate(-85 -57)"/>
      <path class="cls-3" d="M0,0Z" transform="translate(-85 -57)"/>
      <path class="cls-3" d="M0,0ZM0,0Z" transform="translate(-85 -57)"/>
      <path class="cls-3" d="M0,0ZM0,0Z" transform="translate(-85 -57)"/>
      <path class="cls-3" d="M0,0Z" transform="translate(-85 -57)"/>
      <path class="cls-3" d="M0,0ZM0,0Z" transform="translate(-85 -57)"/>
      <path class="cls-3" d="M0,0Z" transform="translate(-85 -57)"/>
      <path class="cls-3" d="M0,0ZM0,0Z" transform="translate(-85 -57)"/>
      <path class="cls-3" d="M0,0Z" transform="translate(-85 -57)"/>
      <path class="cls-3" d="M0,0ZM0,0Z" transform="translate(-85 -57)"/>
      <path class="cls-3" d="M0,0Z" transform="translate(-85 -57)"/>
      <path class="cls-3" d="M0,0ZM0,0Z" transform="translate(-85 -57)"/>
      <path class="cls-3" d="M0,0Z" transform="translate(-85 -57)"/>
      <path class="cls-3" d="M0,0ZM0,0Z" transform="translate(-85 -57)"/>
      <path class="cls-3" d="M0,0Z" transform="translate(-85 -57)"/>
      <path class="cls-3" d="M0,0ZM0,0Z" transform="translate(-85 -57)"/>
      <path class="cls-3" d="M0,0Z" transform="translate(-85 -57)"/>
      <path class="cls-3" d="M0,0ZM0,0Z" transform="translate(-85 -57)"/>
      <path class="cls-3" d="M0,0Z" transform="translate(-85 -57)"/>
      <path class="cls-3" d="M0,0ZM0,0Z" transform="translate(-85 -57)"/>
      <path class="cls-3" d="M0,0Z" transform="translate(-85 -57)"/>
      <path class="cls-3" d="M0,0ZM0,0Z" transform="translate(-85 -57)"/>
      <path class="cls-3" d="M0,0ZM0,0Z" transform="translate(-85 -57)"/>
      <path class="cls-3" d="M0,0ZM0,0Z" transform="translate(-85 -57)"/>
      <path class="cls-3" d="M0,0Z" transform="translate(-85 -57)"/>
    </g>
    <g>
      <g class="cls-4">
        <g class="cls-4">
          <path class="cls-1" d="M0,0Z" transform="translate(-85 -57)"/>
          <g class="cls-5">
            <g class="cls-4">
              <path class="cls-1" d="M0,0Z" transform="translate(-85 -57)"/>
              <path class="cls-1" d="M0,0Z" transform="translate(-85 -57)"/>
            </g>
          </g>
        </g>
        <g class="cls-4">
          <path class="cls-2" d="M0,0Z" transform="translate(-85 -57)"/>
          <g class="cls-6">
            <g class="cls-4">
              <path class="cls-2" d="M0,0Z" transform="translate(-85 -57)"/>
            </g>
          </g>
        </g>
        <polygon class="cls-2" points="77 186 39 163 39 239 78 261 77 186"/>
        <polygon class="cls-7" points="196 111 157 89 44 154 83 177 196 111"/>
        <g class="cls-4">
          <path class="cls-1" d="M0,0Z" transform="translate(-85 -57)"/>
          <g class="cls-5">
            <g class="cls-4">
              <path class="cls-1" d="M0,0Z" transform="translate(-85 -57)"/>
              <path class="cls-1" d="M0,0Z" transform="translate(-85 -57)"/>
            </g>
          </g>
        </g>
        <path class="cls-1" d="M0,0Z" transform="translate(-85 -57)"/>
      </g>
      <ellipse class="cls-2" cx="169" cy="105" rx="13" ry="7"/>
      <path class="cls-2" d="M0,0Z" transform="translate(-85 -57)"/>
      <g>
        <path class="cls-8" d="M0,0Z" transform="translate(-85 -57)"/>
        <path class="cls-9" d="M0,0Z" transform="translate(-85 -57)"/>
        <path class="cls-10" d="M0,0Z" transform="translate(-85 -57)"/>
      </g>
      <path class="cls-11" d="M0,0Z" transform="translate(-85 -57)"/>
    </g>
    <g>
      <path class="cls-12" d="M0,0Z" transform="translate(-85 -57)"/>
      <path class="cls-12" d="M0,0Z" transform="translate(-85 -57)"/>
      <path class="cls-10" d="M0,0Z" transform="translate(-85 -57)"/>
      <path class="cls-12" d="M0,0Z" transform="translate(-85 -57)"/>
      <path class="cls-12" d="M0,0Z" transform="translate(-85 -57)"/>
      <path class="cls-12" d="M0,0Z" transform="translate(-85 -57)"/>
      <path class="cls-12" d="M0,0Z" transform="translate(-85 -57)"/>
      <path class="cls-12" d="M0,0Z" transform="translate(-85 -57)"/>
      <path class="cls-12" d="M0,0Z" transform="translate(-85 -57)"/>
      <path class="cls-13" d="M0,0Z" transform="translate(-85 -57)"/>
      <path class="cls-13" d="M0,0Z" transform="translate(-85 -57)"/>
      <path class="cls-14" d="M0,0Z" transform="translate(-85 -57)"/>
      <path class="cls-13" d="M0,0Z" transform="translate(-85 -57)"/>
      <g>
        <path class="cls-12" d="M0,0Z" transform="translate(-85 -57)"/>
        <path class="cls-13" d="M0,0Z" transform="translate(-85 -57)"/>
        <circle class="cls-15" cx="283" cy="293" r="56" transform="translate(-144 16) rotate(-13)"/>
      </g>
      <g>
        <path class="cls-10" d="M0,0Z" transform="translate(-85 -57)"/>
        <path class="cls-10" d="M0,0Z" transform="translate(-85 -57)"/>
        <path class="cls-10" d="M0,0ZM0,0Z" transform="translate(-85 -57)"/>
        <path class="cls-10" d="M0,0Z" transform="translate(-85 -57)"/>
        <path class="cls-10" d="M0,0Z" transform="translate(-85 -57)"/>
      </g>
      <g>
        <g>
          <path class="cls-12" d="M0,0Z" transform="translate(-85 -57)"/>
          <g id="man">
            <path class="cls-12" d="M0,0Z" transform="translate(-85 -57)"/>
          </g>
          <path class="cls-12" d="M0,0Z" transform="translate(-85 -57)"/>
          <path class="cls-12" d="M0,0Z" transform="translate(-85 -57)"/>
          <path class="cls-13" d="M0,0Z" transform="translate(-85 -57)"/>
          <g>
            <path class="cls-14" d="M0,0Z" transform="translate(-85 -57)"/>
            <path class="cls-13" d="M0,0Z" transform="translate(-85 -57)"/>
          </g>
          <path class="cls-12" d="M0,0Z" transform="translate(-85 -57)"/>
        </g>
        <g>
          <path class="cls-12" d="M0,0Z" transform="translate(-85 -57)"/>
          <path class="cls-13" d="M0,0Z" transform="translate(-85 -57)"/>
        </g>
      </g>
      <path class="cls-12" d="M0,0Z" transform="translate(-85 -57)"/>
      <path class="cls-12" d="M0,0Z" transform="translate(-85 -57)"/>
      <path class="cls-16" d="M0,0Z" transform="translate(-85 -57)"/>
      <path class="cls-13" d="M0,0Z" transform="translate(-85 -57)"/>
    </g>
  </g>
</svg>
